<svg width="127" height="126" viewBox="0 0 127 126" fill="none" xmlns="http://www.w3.org/2000/svg">
<path fill-rule="evenodd" clip-rule="evenodd" d="M63.5005 0C28.4348 0 0 28.9187 0 64.5945C0 93.1345 18.1948 117.348 43.4255 125.889C46.5991 126.487 47.7642 124.488 47.7642 122.782C47.7642 121.241 47.7053 116.153 47.678 110.755C30.0121 114.663 26.2843 103.134 26.2843 103.134C23.3958 95.6675 19.2338 93.6821 19.2338 93.6821C13.4724 89.673 19.668 89.7554 19.668 89.7554C26.0446 90.21 29.4022 96.4119 29.4022 96.4119C35.0658 106.287 44.2573 103.432 47.8809 101.782C48.4509 97.6078 50.0965 94.7561 51.9125 93.1441C37.8082 91.5107 22.9815 85.9719 22.9815 61.2207C22.9815 54.1683 25.462 48.406 29.5241 43.8823C28.8648 42.2543 26.6913 35.6854 30.1393 26.7879C30.1393 26.7879 35.4717 25.0518 47.6065 33.4092C52.6717 31.9779 58.104 31.2602 63.5005 31.2356C68.897 31.2602 74.3335 31.9779 79.4083 33.4092C91.5283 25.0518 96.8533 26.7879 96.8533 26.7879C100.31 35.6854 98.1352 42.2543 97.4759 43.8823C101.547 48.406 104.011 54.1683 104.011 61.2207C104.011 86.0307 89.1561 91.4936 75.016 93.0927C77.2936 95.0973 79.3231 99.0284 79.3231 105.055C79.3231 113.697 79.2495 120.653 79.2495 122.782C79.2495 124.501 80.3925 126.515 83.6113 125.88C108.828 117.329 127 93.1248 127 64.5945C127 28.9187 98.5695 0 63.5005 0Z" fill="black"/>
<path fill-rule="evenodd" clip-rule="evenodd" d="M24.0509 92.744C23.911 93.066 23.4147 93.1612 22.9625 92.9408C22.5019 92.7301 22.2433 92.2926 22.3926 91.9707C22.5293 91.6401 23.0267 91.5492 23.4862 91.7685C23.9478 91.9803 24.2107 92.4221 24.0509 92.744Z" fill="black"/>
<path fill-rule="evenodd" clip-rule="evenodd" d="M26.6229 95.6621C26.3201 95.9477 25.7281 95.8151 25.3264 95.3637C24.911 94.9133 24.8332 94.3111 25.1403 94.0212C25.4526 93.7356 26.0267 93.8693 26.4431 94.3197C26.8585 94.7753 26.9395 95.3733 26.6229 95.6621Z" fill="black"/>
<path fill-rule="evenodd" clip-rule="evenodd" d="M29.1267 99.3824C28.7376 99.6573 28.1014 99.3996 27.7081 98.8251C27.3191 98.2507 27.3191 97.5618 27.7165 97.2859C28.1109 97.0099 28.7376 97.2581 29.1361 97.8282C29.5242 98.4112 29.5242 99.1011 29.1267 99.3824Z" fill="black"/>
<path fill-rule="evenodd" clip-rule="evenodd" d="M32.5568 102.977C32.2087 103.367 31.4674 103.262 30.9248 102.729C30.3696 102.209 30.215 101.469 30.5641 101.079C30.9164 100.687 31.6619 100.798 32.2087 101.326C32.7597 101.846 32.928 102.59 32.5568 102.977Z" fill="black"/>
<path fill-rule="evenodd" clip-rule="evenodd" d="M37.2887 105.063C37.1352 105.569 36.4212 105.799 35.702 105.584C34.9838 105.363 34.5137 104.77 34.6588 104.259C34.8082 103.75 35.5253 103.51 36.2498 103.74C36.967 103.961 37.4381 104.549 37.2887 105.063Z" fill="black"/>
<path fill-rule="evenodd" clip-rule="evenodd" d="M42.4855 105.451C42.5033 105.983 41.8934 106.425 41.1384 106.434C40.3792 106.452 39.7651 106.021 39.7567 105.497C39.7567 104.959 40.3529 104.521 41.1121 104.508C41.8672 104.493 42.4855 104.921 42.4855 105.451Z" fill="black"/>
<path fill-rule="evenodd" clip-rule="evenodd" d="M47.3215 104.613C47.4119 105.133 46.8872 105.667 46.1375 105.808C45.4003 105.946 44.7179 105.625 44.6243 105.109C44.5328 104.577 45.067 104.043 45.8031 103.905C46.5539 103.772 47.2258 104.085 47.3215 104.613Z" fill="black"/>
</svg>
