<svg width="216" height="216" viewBox="0 0 216 216" fill="none" xmlns="http://www.w3.org/2000/svg">
<path d="M0 108C0 48.3532 48.3532 0 108 0C167.647 0 216 48.3532 216 108C216 167.647 167.647 216 108 216C48.3532 216 0 167.647 0 108Z" fill="white"/>
<mask id="mask0" mask-type="alpha" maskUnits="userSpaceOnUse" x="0" y="0" width="216" height="216">
<path fill-rule="evenodd" clip-rule="evenodd" d="M0 108C0 48.3532 48.3532 0 108 0C167.647 0 216 48.3532 216 108C216 167.647 167.647 216 108 216C48.3532 216 0 167.647 0 108Z" fill="white"/>
</mask>
<g mask="url(#mask0)">
<path fill-rule="evenodd" clip-rule="evenodd" d="M107.996 50.3999C92.3612 50.3999 90.3976 50.4684 84.2547 50.7479C78.1226 51.0287 73.937 51.9995 70.2745 53.4239C66.4861 54.8951 63.2724 56.8632 60.0708 60.066C56.8668 63.2676 54.8988 66.4813 53.4227 70.2685C51.9947 73.9321 51.0227 78.119 50.7467 84.2486C50.4719 90.3927 50.3999 92.3571 50.3999 108C50.3999 123.644 50.4695 125.601 50.7479 131.745C51.0299 137.877 52.0007 142.063 53.4239 145.725C54.8964 149.514 56.8644 152.727 60.0672 155.929C63.2676 159.133 66.4813 161.106 70.2673 162.577C73.9322 164.001 78.119 164.972 84.2499 165.253C90.3939 165.533 92.3559 165.601 107.998 165.601C123.643 165.601 125.6 165.533 131.744 165.253C137.876 164.972 142.066 164.001 145.731 162.577C149.519 161.106 152.727 159.133 155.928 155.929C159.132 152.727 161.1 149.514 162.576 145.726C163.992 142.063 164.964 137.876 165.252 131.746C165.528 125.602 165.6 123.644 165.6 108C165.6 92.3571 165.528 90.3939 165.252 84.2498C164.964 78.1178 163.992 73.9321 162.576 70.2697C161.1 66.4813 159.132 63.2676 155.928 60.066C152.724 56.862 149.52 54.8939 145.728 53.4239C142.056 51.9995 137.868 51.0287 131.736 50.7479C125.593 50.4684 123.636 50.3999 107.996 50.3999ZM106.085 60.7795H106.086C106.701 60.7798 107.341 60.7801 108.006 60.7801C123.385 60.7801 125.208 60.8353 131.281 61.1113C136.897 61.3681 139.945 62.3065 141.976 63.0949C144.664 64.1389 146.58 65.3869 148.595 67.4029C150.611 69.4189 151.859 71.339 152.905 74.027C153.694 76.055 154.633 79.1031 154.889 84.7191C155.165 90.7912 155.225 92.6152 155.225 107.987C155.225 123.36 155.165 125.184 154.889 131.256C154.632 136.872 153.694 139.92 152.905 141.948C151.861 144.636 150.611 146.55 148.595 148.565C146.579 150.581 144.665 151.829 141.976 152.873C139.947 153.665 136.897 154.601 131.281 154.857C125.209 155.133 123.385 155.193 108.006 155.193C92.625 155.193 90.8022 155.133 84.7301 154.857C79.114 154.598 76.066 153.66 74.0344 152.871C71.3464 151.827 69.4263 150.579 67.4103 148.563C65.3943 146.547 64.1463 144.632 63.0999 141.943C62.3115 139.915 61.3719 136.867 61.1163 131.251C60.8403 125.179 60.785 123.355 60.785 107.973C60.785 92.5912 60.8403 90.7768 61.1163 84.7047C61.3731 79.0887 62.3115 76.0406 63.0999 74.0102C64.1439 71.3222 65.3943 69.4021 67.4103 67.3861C69.4263 65.3701 71.3464 64.1221 74.0344 63.0757C76.0648 62.2837 79.114 61.3477 84.7301 61.0897C90.0438 60.8497 92.103 60.7777 102.838 60.7657V60.7801C103.841 60.7785 104.92 60.779 106.085 60.7795H106.085H106.085ZM131.84 77.2537C131.84 73.4364 134.936 70.344 138.752 70.344V70.3416C142.568 70.3416 145.664 73.4376 145.664 77.2537C145.664 81.0697 142.568 84.1657 138.752 84.1657C134.936 84.1657 131.84 81.0697 131.84 77.2537ZM108.005 78.4205C91.6693 78.4205 78.4248 91.665 78.4248 108.001C78.4248 124.337 91.6693 137.575 108.005 137.575C124.341 137.575 137.581 124.337 137.581 108.001C137.581 91.665 124.34 78.4205 108.004 78.4205H108.005ZM127.205 108.001C127.205 97.3961 118.609 88.8004 108.005 88.8004C97.4008 88.8004 88.8051 97.3961 88.8051 108.001C88.8051 118.604 97.4008 127.201 108.005 127.201C118.609 127.201 127.205 118.604 127.205 108.001Z" fill="black"/>
</g>
</svg>
