<svg width="129" height="129" viewBox="0 0 129 129" fill="none" xmlns="http://www.w3.org/2000/svg">
<path fill-rule="evenodd" clip-rule="evenodd" d="M0 64.5C0 28.8776 28.8776 0 64.5 0C100.122 0 129 28.8776 129 64.5C129 100.122 100.122 129 64.5 129C28.8776 129 0 100.122 0 64.5ZM45.5816 53.4218H30.9645V97.3402H45.5816V53.4218ZM46.5441 39.836C46.4492 35.5298 43.3699 32.25 38.3695 32.25C33.369 32.25 30.0999 35.5298 30.0999 39.836C30.0999 44.053 33.2724 47.4272 38.1797 47.4272H38.2731C43.3699 47.4272 46.5441 44.053 46.5441 39.836ZM98.2965 72.1586C98.2965 58.6688 91.0854 52.3904 81.4667 52.3904C73.706 52.3904 70.2314 56.6531 68.2913 59.6435V53.4229H53.6725C53.8651 57.5439 53.6725 97.3412 53.6725 97.3412H68.2913V72.8136C68.2913 71.501 68.3862 70.1917 68.7727 69.2519C69.8291 66.6297 72.2345 63.9147 76.2728 63.9147C81.5642 63.9147 83.6794 67.9419 83.6794 73.8437V97.3401H98.2959L98.2965 72.1586Z" fill="black"/>
</svg>
