<svg width="116" height="116" viewBox="0 0 116 116" fill="none" xmlns="http://www.w3.org/2000/svg">
<path fill-rule="evenodd" clip-rule="evenodd" d="M57.9963 0.399902C42.3612 0.399929 40.3976 0.468357 34.2547 0.747906C28.1226 1.02871 23.937 1.99952 20.2745 3.42393C16.4861 4.89515 13.2724 6.86317 10.0708 10.066C6.86677 13.2676 4.89875 16.4813 3.42273 20.2685C1.99472 23.9321 1.02271 28.119 0.746706 34.2486C0.471903 40.3927 0.399902 42.3571 0.399902 58.0005C0.399902 73.6439 0.469503 75.6011 0.747906 81.7451C1.02991 87.8772 2.00072 92.0628 3.42393 95.7253C4.89635 99.5137 6.86437 102.727 10.0672 105.929C13.2676 109.133 16.4813 111.106 20.2673 112.577C23.9322 114.001 28.119 114.972 34.2499 115.253C40.3939 115.533 42.3559 115.601 57.9981 115.601C73.6427 115.601 75.5999 115.533 81.744 115.253C87.876 114.972 92.0665 114.001 95.7313 112.577C99.5186 111.106 102.727 109.133 105.928 105.929C109.132 102.727 111.1 99.5137 112.576 95.7265C113.992 92.0628 114.964 87.876 115.252 81.7463C115.528 75.6023 115.6 73.6439 115.6 58.0005C115.6 42.3571 115.528 40.3939 115.252 34.2498C114.964 28.1178 113.992 23.9321 112.576 20.2697C111.1 16.4813 109.132 13.2676 105.928 10.066C102.724 6.86197 99.5198 4.89395 95.7277 3.42393C92.0557 1.99952 87.8676 1.02871 81.7356 0.747906C75.5927 0.468357 73.6362 0.399929 57.9963 0.399902ZM56.0854 10.7795H56.0858C56.7014 10.7798 57.3408 10.7801 58.0055 10.7801C73.3849 10.7801 75.2077 10.8353 81.281 11.1113C86.897 11.3681 89.9451 12.3065 91.9755 13.0949C94.6635 14.1389 96.5799 15.3869 98.5948 17.4029C100.611 19.4189 101.859 21.339 102.905 24.027C103.694 26.055 104.633 29.1031 104.889 34.7191C105.165 40.7912 105.225 42.6152 105.225 57.9874C105.225 73.3595 105.165 75.1835 104.889 81.2556C104.632 86.8717 103.694 89.9197 102.905 91.9477C101.861 94.6357 100.611 96.5498 98.5948 98.5646C96.5787 100.581 94.6647 101.829 91.9755 102.873C89.9475 103.665 86.897 104.601 81.281 104.857C75.2089 105.133 73.3849 105.193 58.0055 105.193C42.625 105.193 40.8022 105.133 34.7301 104.857C29.114 104.598 26.066 103.66 24.0344 102.871C21.3464 101.827 19.4263 100.579 17.4103 98.5634C15.3943 96.5474 14.1463 94.6321 13.0999 91.9429C12.3115 89.9149 11.3719 86.8669 11.1163 81.2508C10.8403 75.1787 10.785 73.3547 10.785 57.973C10.785 42.5912 10.8403 40.7768 11.1163 34.7047C11.3731 29.0887 12.3115 26.0406 13.0999 24.0102C14.1439 21.3222 15.3943 19.4021 17.4103 17.3861C19.4263 15.3701 21.3464 14.1221 24.0344 13.0757C26.0648 12.2837 29.114 11.3477 34.7301 11.0897C40.0438 10.8497 42.103 10.7777 52.8383 10.7657V10.7801C53.8414 10.7785 54.9204 10.779 56.0848 10.7795H56.0851H56.0854ZM81.84 27.2537C81.84 23.4364 84.9361 20.344 88.7521 20.344V20.3416C92.5682 20.3416 95.6642 23.4376 95.6642 27.2537C95.6642 31.0697 92.5682 34.1657 88.7521 34.1657C84.9361 34.1657 81.84 31.0697 81.84 27.2537ZM58.0051 28.4205C41.6693 28.4205 28.4248 41.665 28.4248 58.0008C28.4248 74.3366 41.6693 87.5751 58.0051 87.5751C74.3409 87.5751 87.5806 74.3366 87.5806 58.0008C87.5806 41.665 74.3397 28.4205 58.0039 28.4205H58.0051ZM77.2055 58.0006C77.2055 47.3961 68.6086 38.8004 58.0053 38.8004C47.4008 38.8004 38.8051 47.3961 38.8051 58.0006C38.8051 68.6039 47.4008 77.2008 58.0053 77.2008C68.6086 77.2008 77.2055 68.6039 77.2055 58.0006Z" fill="black"/>
</svg>
